<svg xmlns="http://www.w3.org/2000/svg" width="366.335" height="444.018" viewBox="0 0 366.335 444.018">
  <g id="noun-password-1095737_1_" data-name="noun-password-1095737 (1)" transform="translate(-189.121 -57.999)">
    <path id="Tracé_170" data-name="Tracé 170" d="M211.32,257.7V468.81a11.1,11.1,0,0,0,11.121,11h299.68a10.992,10.992,0,0,0,11.121-11l0-211.1a11.089,11.089,0,0,0-11.121-11H222.445a11,11,0,0,0-11.121,11Zm-22.2,0a33.2,33.2,0,0,1,33.328-33.2h299.68a33.314,33.314,0,0,1,33.328,33.2v211.11a33.2,33.2,0,0,1-33.328,33.207H222.449a33.3,33.3,0,0,1-33.32-33.2Z" fill-rule="evenodd"/>
    <path id="Tracé_171" data-name="Tracé 171" d="M277.92,152.35a72.234,72.234,0,0,1,72.164-72.156h38.852A72.172,72.172,0,0,1,461.1,152.35v39.684a12.953,12.953,0,0,0,11.809,7.617,10.223,10.223,0,0,0,10.395-7.609V152.351A94.385,94.385,0,0,0,388.937,58H350.085a94.422,94.422,0,0,0-94.352,94.352v83.258l22.2-4.258,0-79Z" fill-rule="evenodd"/>
    <path id="Tracé_172" data-name="Tracé 172" d="M367.11,308.12V412.69a11.1,11.1,0,1,0,22.2,0l0-104.57a11.1,11.1,0,1,0-22.2,0Z" fill-rule="evenodd"/>
  </g>
</svg>
