<svg xmlns="http://www.w3.org/2000/svg" width="560" height="560" viewBox="0 0 560 560">
  <g id="noun-close-1075144_1_" data-name="noun-close-1075144 (1)" transform="translate(-70)">
    <path id="Tracé_85" data-name="Tracé 85" d="M383,280l74.27,74.27a23.335,23.335,0,0,1-33,33L350,313l-74.27,74.27a23.335,23.335,0,0,1-33-33L317,280l-74.27-74.27a23.335,23.335,0,0,1,33-33L350,247l74.27-74.27a23.335,23.335,0,0,1,33,33ZM350,560C195.36,560,70,434.64,70,280S195.36,0,350,0,630,125.36,630,280,504.64,560,350,560Zm0-46.668c128.87,0,233.33-104.46,233.33-233.33S478.87,46.672,350,46.672,116.67,151.132,116.67,280,221.13,513.332,350,513.332Z"/>
  </g>
</svg>
