<svg xmlns="http://www.w3.org/2000/svg" width="501.647" height="501.798" viewBox="0 0 501.647 501.798">
  <g id="noun-information-5554187" transform="translate(-99.033 -29.046)">
    <path id="Tracé_139" data-name="Tracé 139" d="M308.46,32.434A250.371,250.371,0,0,0,130.2,400.4a6.08,6.08,0,0,1,0,4.668l-17.965,61.6a40.83,40.83,0,0,0,51.1,51.1l71.4-21.465h0a17.534,17.534,0,1,0-10.036-33.6l-71.4,21.465v0a5.608,5.608,0,0,1-5.836-1.4,6.068,6.068,0,0,1-1.4-5.832L164.73,415.1a41.312,41.312,0,0,0-3.5-31.5A215.821,215.821,0,1,1,286.758,486.278a17.5,17.5,0,1,0-10.265,33.367,246.318,246.318,0,0,0,73.5,11.2,264.426,264.426,0,0,0,53.9-5.6,251.068,251.068,0,0,0-95.44-492.8Z"/>
    <path id="Tracé_140" data-name="Tracé 140" d="M350,227.5a52.494,52.494,0,1,0-37.125-15.375A52.511,52.511,0,0,0,350,227.5Zm0-70A17.5,17.5,0,1,1,332.5,175,17.73,17.73,0,0,1,350,157.5Z"/>
    <path id="Tracé_141" data-name="Tracé 141" d="M297.5,385a52.5,52.5,0,0,0,105,0V291.668a52.5,52.5,0,1,0-105,0Zm35-93.332a17.5,17.5,0,1,1,35,0V385a17.5,17.5,0,1,1-35,0Z"/>
  </g>
</svg>
