<svg xmlns="http://www.w3.org/2000/svg" width="513.334" height="420" viewBox="0 0 513.334 420">
  <g id="noun-mail-5559201_1_" data-name="noun-mail-5559201 (1)" transform="translate(-93.33 -70)">
    <path id="Tracé_142" data-name="Tracé 142" d="M571.67,70H128.33c-19.832,0-35,15.168-35,35V245c0,7,4.668,11.668,11.668,11.668S116.666,252,116.666,245V109.67L287,280,116.666,450.33V315c0-7-4.668-11.668-11.668-11.668S93.33,308,93.33,315V455c0,19.832,15.168,35,35,35H571.66c19.832,0,35-15.168,35-35l0-350c0-19.832-15.168-35-35-35ZM413,280,583.33,109.67V450.34ZM133,93.33H567l-217,217Zm208.83,241.5a11.281,11.281,0,0,0,16.336,0l38.5-38.5L567,466.67H133l170.33-170.34Zm101.5-183.16H256.67C249.67,151.67,245,147,245,140s4.668-11.668,11.668-11.668H443.34c7,0,11.668,4.668,11.668,11.668s-4.672,11.668-11.672,11.668ZM420,198.334H280c-7,0-11.668-4.668-11.668-11.668S273,175,280,175H420c7,0,11.668,4.668,11.668,11.668S427,198.334,420,198.334Z"/>
  </g>
</svg>
