<svg xmlns="http://www.w3.org/2000/svg" width="489.996" height="489.996" viewBox="0 0 489.996 489.996">
  <g id="noun-ok-2712647_1_" data-name="noun-ok-2712647 (1)" transform="translate(-105.002 -35.004)">
    <path id="Tracé_150" data-name="Tracé 150" d="M307.48,378.88a17.089,17.089,0,0,0,26.774-.7l134.66-175a17.5,17.5,0,0,0-27.738-21.352l-121.45,157.5-62.3-73.238a17.5,17.5,0,1,0-26.251,22.664Z"/>
    <path id="Tracé_151" data-name="Tracé 151" d="M350,525a245,245,0,1,0-173.24-71.758A245.006,245.006,0,0,0,350,525Zm0-455a210,210,0,1,1-148.49,61.508A209.989,209.989,0,0,1,350,70Z"/>
  </g>
</svg>
