<svg xmlns="http://www.w3.org/2000/svg" width="560.008" height="556.843" viewBox="0 0 560.008 556.843">
  <g id="noun-qr-code-4315385_1_" data-name="noun-qr-code-4315385 (1)" transform="translate(-69.992 -1.578)">
    <path id="Tracé_205" data-name="Tracé 205" d="M305.91,69.305H150.51a11.2,11.2,0,0,0-11.2,11.2v155.39a11.2,11.2,0,0,0,11.2,11.2H305.9a11.2,11.2,0,0,0,11.2-11.2V80.5a11.186,11.186,0,0,0-11.188-11.2Zm-11.2,155.4h-133V91.7H294.7v133Z"/>
    <path id="Tracé_206" data-name="Tracé 206" d="M199.85,197.76h56.707a11.2,11.2,0,0,0,11.2-11.2V129.854a11.2,11.2,0,0,0-11.2-11.2H199.85a11.2,11.2,0,0,0-11.2,11.2v56.707A11.2,11.2,0,0,0,199.85,197.76Zm11.2-56.7h34.3v34.305h-34.3Z"/>
    <path id="Tracé_207" data-name="Tracé 207" d="M394.11,247.11H549.5a11.2,11.2,0,0,0,11.2-11.2V80.511a11.2,11.2,0,0,0-11.2-11.2H394.11a11.2,11.2,0,0,0-11.2,11.2V235.9a11.2,11.2,0,0,0,11.2,11.211Zm11.2-155.4H538.3V224.7H405.309Z"/>
    <path id="Tracé_208" data-name="Tracé 208" d="M500.15,118.65H443.443a11.2,11.2,0,0,0-11.2,11.2v56.707a11.2,11.2,0,0,0,11.2,11.2H500.15a11.2,11.2,0,0,0,11.2-11.2V129.849A11.2,11.2,0,0,0,500.15,118.65Zm-11.2,56.707h-34.3v-34.3h34.3Z"/>
    <path id="Tracé_209" data-name="Tracé 209" d="M305.91,312.91H150.51a11.2,11.2,0,0,0-11.2,11.2V479.5a11.2,11.2,0,0,0,11.2,11.2H305.9a11.2,11.2,0,0,0,11.2-11.2V324.109a11.176,11.176,0,0,0-11.188-11.2Zm-11.2,155.39h-133V335.31H294.7V468.3Z"/>
    <path id="Tracé_210" data-name="Tracé 210" d="M199.85,441.35h56.707a11.2,11.2,0,0,0,11.2-11.2V373.444a11.2,11.2,0,0,0-11.2-11.2H199.85a11.2,11.2,0,0,0-11.2,11.2v56.707A11.2,11.2,0,0,0,199.85,441.35Zm11.2-56.7h34.3v34.3h-34.3Z"/>
    <path id="Tracé_211" data-name="Tracé 211" d="M560.7,479.5V324.11a11.189,11.189,0,0,0-11.2-11.2H394.111a11.189,11.189,0,0,0-11.2,11.2V479.5a11.189,11.189,0,0,0,11.2,11.2H549.5A11.206,11.206,0,0,0,560.7,479.5Zm-22.4-11.2H405.308V335.307H538.3Z"/>
    <path id="Tracé_212" data-name="Tracé 212" d="M443.45,441.35h56.707a11.189,11.189,0,0,0,11.2-11.2V373.444a11.189,11.189,0,0,0-11.2-11.2H443.45a11.189,11.189,0,0,0-11.2,11.2v56.707A11.189,11.189,0,0,0,443.45,441.35Zm11.2-56.7h34.3v34.3h-34.3Z"/>
    <path id="Tracé_213" data-name="Tracé 213" d="M81.2,140.54a11.2,11.2,0,0,0,11.2-11.2V23.981h105.35a11.2,11.2,0,1,0,0-22.4l-116.55,0A11.2,11.2,0,0,0,70,12.778v116.57a11.2,11.2,0,0,0,11.2,11.191Z"/>
    <path id="Tracé_214" data-name="Tracé 214" d="M618.8,1.578H502.26a11.2,11.2,0,1,0,0,22.4l105.34,0V129.35a11.2,11.2,0,1,0,22.4,0V12.78a11.191,11.191,0,0,0-11.2-11.2Z"/>
    <path id="Tracé_215" data-name="Tracé 215" d="M618.8,419.47a11.188,11.188,0,0,0-11.2,11.2v105.35H502.251a11.2,11.2,0,1,0,0,22.4l116.55,0a11.188,11.188,0,0,0,11.2-11.2V430.672a11.191,11.191,0,0,0-11.2-11.2Z"/>
    <path id="Tracé_216" data-name="Tracé 216" d="M197.73,536.02H92.39V430.67a11.2,11.2,0,1,0-22.4,0V547.22a11.2,11.2,0,0,0,11.2,11.2h116.54a11.2,11.2,0,1,0,0-22.4Z"/>
  </g>
</svg>
