<svg xmlns="http://www.w3.org/2000/svg" width="448.445" height="328.37" viewBox="0 0 448.445 328.37">
  <path id="noun-return-1892803_1_" data-name="noun-return-1892803 (1)" d="M478.29,333.84a8.267,8.267,0,0,1,0,11.582L464.548,359.93a8.4,8.4,0,0,1-11.711,0l-54.473-53.836L344.653,359.93h0a8.4,8.4,0,0,1-11.711,0l-14.508-14.508a8.528,8.528,0,0,1,0-11.582L371.762,280l-53.836-53.836a8.274,8.274,0,0,1,0-11.582l14.508-14.508h0a8.267,8.267,0,0,1,11.582,0l53.836,54.473,53.961-54.473a8.4,8.4,0,0,1,11.711,0l15.02,14.254a8.4,8.4,0,0,1,0,11.707L424.583,280ZM539,115.82H245a23.677,23.677,0,0,0-18.582,9.164l-107.8,140.77a23.669,23.669,0,0,0,0,28.508l108.44,140.76v0a23.678,23.678,0,0,0,18.582,9.164H539a23.286,23.286,0,0,0,23.289-23.422V139.248A23.286,23.286,0,0,0,539,115.826Z" transform="translate(-113.846 -115.82)"/>
</svg>
