<svg xmlns="http://www.w3.org/2000/svg" width="516.328" height="549.358" viewBox="0 0 516.328 549.358">
  <g id="noun-download-2727592_2_" data-name="noun-download-2727592 (2)" transform="translate(-91.838 -5.042)">
    <path id="Tracé_92" data-name="Tracé 92" d="M582.4,554.4H117.6a26.06,26.06,0,0,1-25.762-25.762l0-129.36a25.762,25.762,0,0,1,51.524,0v103.04h413.28l0-103.04a25.762,25.762,0,0,1,51.524,0v129.36A25.7,25.7,0,0,1,582.4,554.4Z"/>
    <path id="Tracé_93" data-name="Tracé 93" d="M348.32,418.88a21.957,21.957,0,0,1-10.078-2.238,25.82,25.82,0,0,1-15.68-24.078L323.683,30.8a25.762,25.762,0,1,1,51.524,0l-1.121,300.72,132.16-126.56c10.078-10.078,26.879-9.52,36.4.559,10.078,10.078,9.519,26.879-.559,36.4L366.235,411.6a25.908,25.908,0,0,1-17.918,7.277Z"/>
    <path id="Tracé_94" data-name="Tracé 94" d="M348.32,418.88A24.513,24.513,0,0,1,330.4,411.6l-173.04-168c-10.078-10.078-10.641-26.32-.559-36.4s26.32-10.641,36.4-.559l173.04,168c10.078,10.078,10.641,26.32.559,36.4a26.341,26.341,0,0,1-18.477,7.84Z"/>
  </g>
</svg>
